<svg width="27" height="523" viewBox="0 0 27 523" fill="none" xmlns="http://www.w3.org/2000/svg">
<path fill-rule="evenodd" clip-rule="evenodd" d="M17.1231 51.0813C18.2383 50.7627 19.4006 51.4085 19.7192 52.5236C19.7728 52.7112 19.8 52.9054 19.8 53.1005V54.8585H21.9C23.0598 54.8585 24 55.7987 24 56.9585V69.5585C24 70.7183 23.0598 71.6585 21.9 71.6585H5.1C3.9402 71.6585 3 70.7183 3 69.5585H3.02804C3.0094 69.4456 3 69.3312 3 69.2165V56.7005C3 55.7629 3.62155 54.9389 4.52309 54.6813L17.1231 51.0813ZM11.547 69.5585H21.9V61.1585H19.8V65.6165C19.8 66.5541 19.1784 67.3781 18.2769 67.6357L11.547 69.5585ZM19.8 56.9585H21.9V59.0585H19.8V56.9585ZM5.1 56.7005V69.2165L17.7 65.6165V53.1005L5.1 56.7005ZM15.6 59.0585C15.6 59.6384 15.1299 60.1085 14.55 60.1085C13.9701 60.1085 13.5 59.6384 13.5 59.0585C13.5 58.4786 13.9701 58.0085 14.55 58.0085C15.1299 58.0085 15.6 58.4786 15.6 59.0585Z" fill="#828282"/>
<path fill-rule="evenodd" clip-rule="evenodd" d="M13.4999 123.042C7.67792 123.042 2.95825 118.322 2.95825 112.5C2.95825 106.678 7.67792 101.958 13.4999 101.958C19.3219 101.958 24.0416 106.678 24.0416 112.5C24.0416 118.322 19.3219 123.042 13.4999 123.042ZM13.4999 121.125C18.2634 121.125 22.1249 117.263 22.1249 112.5C22.1249 107.737 18.2634 103.875 13.4999 103.875C8.73646 103.875 4.87492 107.737 4.87492 112.5C4.87492 117.263 8.73646 121.125 13.4999 121.125ZM14.4583 115.375C14.4583 116.963 15.7454 118.25 17.3333 118.25C18.9211 118.25 20.2083 116.963 20.2083 115.375C20.2083 113.787 18.9211 112.5 17.3333 112.5C15.7454 112.5 14.4583 113.787 14.4583 115.375ZM17.3333 116.333C17.8625 116.333 18.2916 115.904 18.2916 115.375C18.2916 114.846 17.8625 114.417 17.3333 114.417C16.804 114.417 16.3749 114.846 16.3749 115.375C16.3749 115.904 16.804 116.333 17.3333 116.333ZM6.79158 109.625C6.79158 111.213 8.07877 112.5 9.66659 112.5C11.2544 112.5 12.5416 111.213 12.5416 109.625C12.5416 108.037 11.2544 106.75 9.66659 106.75C8.07877 106.75 6.79158 108.037 6.79158 109.625ZM9.66658 110.583C10.1959 110.583 10.6249 110.154 10.6249 109.625C10.6249 109.096 10.1959 108.667 9.66658 108.667C9.13731 108.667 8.70825 109.096 8.70825 109.625C8.70825 110.154 9.13731 110.583 9.66658 110.583ZM11.6964 118.25L17.4464 106.75H15.3035L9.55346 118.25H11.6964Z" fill="#828282"/>
<g clip-path="url(#clip0)">
<path d="M13.3587 157.991C12.3229 157.991 11.4753 158.274 10.8161 158.933C10.2511 159.404 9.87444 160.063 9.6861 160.91C9.59193 161.193 9.59193 161.475 9.59193 161.758C9.59193 164.96 11.287 166.466 13.3587 166.466C13.9238 166.466 14.4888 166.372 14.9596 166.184C15.6188 165.901 16.1839 165.336 16.5605 164.583C16.9372 163.924 17.1256 163.076 17.1256 161.946C17.1256 159.78 15.6188 157.991 13.3587 157.991ZM15.148 163.076C14.8655 164.112 14.2063 164.489 13.3587 164.489C12.417 164.489 11.7578 164.018 11.5695 162.7C11.4753 162.511 11.4753 162.135 11.4753 161.758C11.4753 161.099 11.7578 160.534 12.2287 160.251C12.5112 160.063 12.8879 159.874 13.4529 159.874C14.583 159.874 15.3363 160.816 15.3363 161.946C15.2422 162.417 15.2422 162.794 15.148 163.076ZM13.3587 157.991C12.3229 157.991 11.4753 158.274 10.8161 158.933C10.2511 159.404 9.87444 160.063 9.6861 160.91C9.59193 161.193 9.59193 161.475 9.59193 161.758C9.59193 164.96 11.287 166.466 13.3587 166.466C13.9238 166.466 14.4888 166.372 14.9596 166.184C15.6188 165.901 16.1839 165.336 16.5605 164.583C16.9372 163.924 17.1256 163.076 17.1256 161.946C17.1256 159.78 15.6188 157.991 13.3587 157.991ZM15.148 163.076C14.8655 164.112 14.2063 164.489 13.3587 164.489C12.417 164.489 11.7578 164.018 11.5695 162.7C11.4753 162.511 11.4753 162.135 11.4753 161.758C11.4753 161.099 11.7578 160.534 12.2287 160.251C12.5112 160.063 12.8879 159.874 13.4529 159.874C14.583 159.874 15.3363 160.816 15.3363 161.946C15.2422 162.417 15.2422 162.794 15.148 163.076ZM18.9148 170.045C17.4081 171.363 15.5247 172.117 13.3587 172.117C11.1928 172.117 9.21525 171.363 7.70852 169.951C7.99103 169.009 9.96861 168.35 13.3587 168.35C15.3363 168.35 16.8431 168.538 17.7848 169.009L15.3363 166.561C14.6771 166.466 14.0179 166.466 13.3587 166.466C9.96861 166.466 7.42601 167.031 6.39013 168.444C5.44843 167.126 4.88341 165.43 4.88341 163.641C4.88341 161.569 5.63677 159.592 6.86099 158.179L5.5426 156.861C3.9417 158.65 3 161.004 3 163.641C3 169.386 7.61435 174 13.3587 174C15.9955 174 18.4439 173.058 20.2332 171.363L18.9148 170.045ZM13.3587 157.991C12.3229 157.991 11.4753 158.274 10.8161 158.933C10.2511 159.404 9.87444 160.063 9.6861 160.91C9.59193 161.193 9.59193 161.475 9.59193 161.758C9.59193 164.96 11.287 166.466 13.3587 166.466C13.9238 166.466 14.4888 166.372 14.9596 166.184C15.6188 165.901 16.1839 165.336 16.5605 164.583C16.9372 163.924 17.1256 163.076 17.1256 161.946C17.1256 159.78 15.6188 157.991 13.3587 157.991ZM15.148 163.076C14.8655 164.112 14.2063 164.489 13.3587 164.489C12.417 164.489 11.7578 164.018 11.5695 162.7C11.4753 162.511 11.4753 162.135 11.4753 161.758C11.4753 161.099 11.7578 160.534 12.2287 160.251C12.5112 160.063 12.8879 159.874 13.4529 159.874C14.583 159.874 15.3363 160.816 15.3363 161.946C15.2422 162.417 15.2422 162.794 15.148 163.076Z" fill="#828282"/>
<path d="M24.0001 163.359C24.0001 165.619 23.2467 167.691 22.0225 169.386L20.7041 168.067C21.6458 166.749 22.1167 165.054 22.1167 163.359C22.1167 158.65 18.3499 154.883 13.6413 154.883C11.8521 154.883 10.157 155.448 8.83865 156.39L7.52026 154.978C9.21533 153.753 11.2871 153 13.6413 153C19.3857 153 24.0001 157.614 24.0001 163.359Z" fill="#828282"/>
<path d="M4.22412 154.601L22.4932 172.587" stroke="#828282" stroke-width="2"/>
</g>
<path fill-rule="evenodd" clip-rule="evenodd" d="M4.97719 204.083H22.0226C23.0686 204.083 23.9166 205.12 23.9166 206.398V213.458V215.542V222.602C23.9166 223.88 23.0686 224.917 22.0226 224.917H4.97719C3.9312 224.917 3.08325 223.88 3.08325 222.602V206.398C3.08325 205.12 3.9312 204.083 4.97719 204.083ZM21.8333 213.458V206.167H5.16659V213.458H8.72306L11.0652 215.801L14.2939 208.267L18.1874 213.458H21.8333ZM5.16659 215.542H7.86011L11.768 219.45L14.7893 212.4L17.1458 215.542H21.8333V222.833H5.16659V215.542Z" fill="#828282"/>
<path fill-rule="evenodd" clip-rule="evenodd" d="M23.625 274.75H6.75C4.88604 274.75 3.375 273.239 3.375 271.375V255.625C3.375 253.761 4.88604 252.25 6.75 252.25H23.625V270.25C23.0037 270.25 22.5 270.754 22.5 271.375C22.5 271.996 23.0037 272.5 23.625 272.5V274.75ZM20.25 271.375C20.25 270.981 20.3177 270.602 20.442 270.25H6.75C6.12868 270.25 5.625 270.754 5.625 271.375C5.625 271.996 6.12868 272.5 6.75 272.5H20.442C20.3177 272.148 20.25 271.769 20.25 271.375ZM6.75 254.5H21.375V268H6.75C6.35554 268 5.97688 268.068 5.625 268.192V255.625C5.625 255.004 6.12868 254.5 6.75 254.5Z" fill="#828282"/>
<path fill-rule="evenodd" clip-rule="evenodd" d="M4.70068 354.875H22.2992C23.2615 354.875 24.0416 355.733 24.0416 356.792V368.292C24.0416 369.35 23.2615 370.208 22.2992 370.208H12.5416V368.292H22.1249V361.583H4.87492V363.5H2.95825V356.792C2.95825 355.733 3.73836 354.875 4.70068 354.875ZM22.1249 356.792V359.667H4.87492V356.792H22.1249ZM2.95825 368.292H7.35296L6.11394 369.531L7.46923 370.886L11.0219 367.333L7.46923 363.781L6.11394 365.136L7.35296 366.375H2.95825V368.292Z" fill="#828282"/>
<path d="M2 419H18.5" stroke="#828282" stroke-width="1.7"/>
<path d="M17.5 418.25V416.417C17.5 415.444 17.1971 414.512 16.5095 413.824C15.8218 413.136 14.8892 412.75 13.9167 412.75H6.58341C5.61095 412.75 4.67832 413.136 3.99069 413.824C3.30306 414.512 3 415.361 3 416.333V418.167" stroke="#828282" stroke-width="2" stroke-linecap="square" stroke-linejoin="round"/>
<path d="M10.2499 409.083C12.275 409.083 13.9166 407.442 13.9166 405.417C13.9166 403.392 12.275 401.75 10.2499 401.75C8.22487 401.75 6.58325 403.392 6.58325 405.417C6.58325 407.442 8.22487 409.083 10.2499 409.083Z" stroke="#828282" stroke-width="2" stroke-linecap="round" stroke-linejoin="round"/>
<path d="M23.75 419V418C23.75 414.5 22.1667 412.869 20 412.869" stroke="#828282" stroke-width="2" stroke-linecap="square" stroke-linejoin="round"/>
<path d="M17.2427 401.869C19 401.869 20.5 403.5 20.5 405.5C20.5 407.5 19 409 17.5 409" stroke="#828282" stroke-width="2" stroke-linecap="square"/>
<path fill-rule="evenodd" clip-rule="evenodd" d="M5.625 462.5V458.698C7.48737 459.693 10.3337 460.25 13.5 460.25C16.6663 460.25 19.5126 459.693 21.375 458.698V462.5C21.375 463.442 17.8861 464.75 13.5 464.75C9.11394 464.75 5.625 463.442 5.625 462.5ZM3.375 462.5V455.75C3.375 452.964 7.94494 451.25 13.5 451.25C19.0551 451.25 23.625 452.964 23.625 455.75V462.5V469.25C23.625 472.036 19.0551 473.75 13.5 473.75C7.94494 473.75 3.375 472.036 3.375 469.25V462.5ZM21.375 465.448V469.25C21.375 470.192 17.8861 471.5 13.5 471.5C9.11394 471.5 5.625 470.192 5.625 469.25V465.448C7.48737 466.443 10.3337 467 13.5 467C16.6663 467 19.5126 466.443 21.375 465.448ZM13.5 458C17.8861 458 21.375 456.692 21.375 455.75C21.375 454.808 17.8861 453.5 13.5 453.5C9.11394 453.5 5.625 454.808 5.625 455.75C5.625 456.692 9.11394 458 13.5 458Z" fill="#828282"/>
<g clip-path="url(#clip1)">
<path fill-rule="evenodd" clip-rule="evenodd" d="M19.8021 514.469C18.644 514.469 17.7021 513.527 17.7021 512.369C17.7021 511.211 18.644 510.269 19.8021 510.269C20.9603 510.269 21.9021 511.211 21.9021 512.369C21.9021 513.527 20.9603 514.469 19.8021 514.469ZM10.498 516.229C9.93839 515.511 9.29789 514.983 8.24789 514.748V510.252C9.29789 510 10.056 509.419 10.6198 508.625L15.684 511.548C15.5748 512.095 15.5695 512.652 15.6934 513.239L10.498 516.229ZM7.20212 520.9C6.04397 520.9 5.10212 519.958 5.10212 518.8C5.10212 517.642 6.04397 516.7 7.20212 516.7C8.36027 516.7 9.30212 517.642 9.30212 518.8C9.30212 519.958 8.36027 520.9 7.20212 520.9ZM5.09789 506.2C5.09789 505.042 6.14789 504.1 7.19789 504.1C10.3479 504.1 10.3479 508.3 7.19789 508.3C6.14789 508.3 5.09789 507.358 5.09789 506.2ZM19.8021 508.169C18.5201 508.169 17.3871 508.756 16.6164 509.661L11.359 506.625C11.6247 504.015 9.58457 502 7.20212 502C4.88266 502 3 503.881 3 506.2C3 508.155 4.04789 509.782 6.14789 510.252V514.748C4.04789 515.216 3 516.845 3 518.8C3 521.119 4.88161 523 7.20106 523C9.68116 523 11.7423 520.824 11.3381 518.169L16.6469 515.114C17.4165 515.999 18.5379 516.569 19.8021 516.569C22.1216 516.569 24.0021 514.688 24.0021 512.369C24.0021 510.049 22.1216 508.169 19.8021 508.169Z" fill="#828282"/>
</g>
<path fill-rule="evenodd" clip-rule="evenodd" d="M22.8749 306.167V316.583C22.8749 317.734 21.9422 318.667 20.7916 318.667H14.5416V320.16L19.2442 322.982L18.1723 324.768L14.5416 322.59V324.917H12.4583V322.59L8.82752 324.768L7.75565 322.982L12.4583 320.16V318.667H6.20825C5.05766 318.667 4.12492 317.734 4.12492 316.583V306.167H3.08325V304.083H23.9166V306.167H22.8749ZM6.20825 306.167V316.583H20.7916V306.167H6.20825ZM9.33325 314.5H11.4166V310.333H9.33325V314.5ZM14.5416 314.5H12.4583V308.25H14.5416V314.5ZM15.5833 314.5H17.6666V311.375H15.5833V314.5Z" fill="#828282"/>
<path fill-rule="evenodd" clip-rule="evenodd" d="M13.4999 4.16665C15.9933 4.16665 18.1316 5.29029 19.5488 7.29165H15.5833V9.37498H22.8749V2.08331H20.7916V5.48993C18.9946 3.3151 16.421 2.08331 13.4999 2.08331C7.74695 2.08331 3.08325 6.74701 3.08325 12.5H5.16659C5.16659 7.89761 8.89755 4.16665 13.4999 4.16665ZM13.4999 20.8333C11.0066 20.8333 8.86819 19.7097 7.45103 17.7083H11.4166V15.625H4.12492V22.9166H6.20825V19.51C8.00524 21.6849 10.5788 22.9166 13.4999 22.9166C19.2529 22.9166 23.9166 18.2529 23.9166 12.5H21.8333C21.8333 17.1024 18.1023 20.8333 13.4999 20.8333Z" fill="#828282"/>
<defs>
<clipPath id="clip0">
<rect width="21" height="21" fill="white" transform="translate(3 153)"/>
</clipPath>
<clipPath id="clip1">
<rect width="21" height="21" fill="white" transform="translate(3 502)"/>
</clipPath>
</defs>
</svg>
